<svg width="36" height="36" viewBox="0 0 36 36" fill="none" xmlns="http://www.w3.org/2000/svg">
<circle cx="18" cy="18" r="18" fill="#ECECED"/>
<mask id="mask0_1_1597" style="mask-type:alpha" maskUnits="userSpaceOnUse" x="6" y="6" width="24" height="24">
<rect x="6" y="6" width="24" height="24" fill="#D9D9D9"/>
</mask>
<g mask="url(#mask0_1_1597)">
<path d="M18 17.6923C17.0375 17.6923 16.2135 17.3496 15.5281 16.6642C14.8427 15.9788 14.5 15.1548 14.5 14.1923C14.5 13.2298 14.8427 12.4059 15.5281 11.7205C16.2135 11.0351 17.0375 10.6923 18 10.6923C18.9625 10.6923 19.7864 11.0351 20.4718 11.7205C21.1572 12.4059 21.5 13.2298 21.5 14.1923C21.5 15.1548 21.1572 15.9788 20.4718 16.6642C19.7864 17.3496 18.9625 17.6923 18 17.6923ZM10.5 23.7884V23.0846C10.5 22.5949 10.633 22.1413 10.899 21.724C11.1651 21.3067 11.5205 20.9859 11.9654 20.7615C12.9538 20.2769 13.951 19.9135 14.9567 19.6712C15.9625 19.4289 16.9769 19.3077 18 19.3077C19.023 19.3077 20.0375 19.4289 21.0432 19.6712C22.049 19.9135 23.0461 20.2769 24.0346 20.7615C24.4794 20.9859 24.8349 21.3067 25.1009 21.724C25.3669 22.1413 25.5 22.5949 25.5 23.0846V23.7884C25.5 24.2102 25.3522 24.5689 25.0567 24.8644C24.7612 25.1599 24.4025 25.3077 23.9808 25.3077H12.0192C11.5974 25.3077 11.2388 25.1599 10.9433 24.8644C10.6478 24.5689 10.5 24.2102 10.5 23.7884ZM12 23.8077H24V23.0846C24 22.882 23.9413 22.6945 23.824 22.5221C23.7067 22.3497 23.5474 22.209 23.3461 22.1C22.4846 21.6756 21.6061 21.3541 20.7107 21.1355C19.8152 20.917 18.9117 20.8077 18 20.8077C17.0883 20.8077 16.1847 20.917 15.2893 21.1355C14.3938 21.3541 13.5154 21.6756 12.6538 22.1C12.4525 22.209 12.2932 22.3497 12.1759 22.5221C12.0586 22.6945 12 22.882 12 23.0846V23.8077ZM18 16.1923C18.55 16.1923 19.0208 15.9965 19.4125 15.6048C19.8041 15.2132 20 14.7423 20 14.1923C20 13.6423 19.8041 13.1715 19.4125 12.7798C19.0208 12.3882 18.55 12.1923 18 12.1923C17.45 12.1923 16.9791 12.3882 16.5875 12.7798C16.1958 13.1715 16 13.6423 16 14.1923C16 14.7423 16.1958 15.2132 16.5875 15.6048C16.9791 15.9965 17.45 16.1923 18 16.1923Z" fill="#CECECE"/>
</g>
</svg>
